PathFileType	4	(X/Y/Z)	C:/Users/opensim2020/Desktop/walking_exp_matlab/subject06_walking12_straigt_04.trc	
DataRate	CameraRate	NumFrames	NumMarkers	Units	OrigDataRate	OrigDataStartFrame	OrigNumFrames	
100.00	100.00	7	48	mm	100.00	2833	181	
Frame#	Time	LFHD			RFHD			LBHD			RBHD			C7			T10			CLAV			STRN			RBAK			LSHO			LUPA			LELB			LFRM			LWRA			LWRB			LFIN			RSHO			RUPA			RELB			RFRM			RWRA			RWRB			RFIN			LASI			RASI			LPSI			RPSI			LTHI			LKNE			LTIB			LANK			LHEE			LTOE			RTHI			RKNE			RTIB			RANK			RHEE			RTOE			*39			*40			*41			*42			*43			*44			*45			*46			*47			
		X1	Y1	Z1	X2	Y2	Z2	X3	Y3	Z3	X4	Y4	Z4	X5	Y5	Z5	X6	Y6	Z6	X7	Y7	Z7	X8	Y8	Z8	X9	Y9	Z9	X10	Y10	Z10	X11	Y11	Z11	X12	Y12	Z12	X13	Y13	Z13	X14	Y14	Z14	X15	Y15	Z15	X16	Y16	Z16	X17	Y17	Z17	X18	Y18	Z18	X19	Y19	Z19	X20	Y20	Z20	X21	Y21	Z21	X22	Y22	Z22	X23	Y23	Z23	X24	Y24	Z24	X25	Y25	Z25	X26	Y26	Z26	X27	Y27	Z27	X28	Y28	Z28	X29	Y29	Z29	X30	Y30	Z30	X31	Y31	Z31	X32	Y32	Z32	X33	Y33	Z33	X34	Y34	Z34	X35	Y35	Z35	X36	Y36	Z36	X37	Y37	Z37	X38	Y38	Z38	X39	Y39	Z39	X40	Y40	Z40	X41	Y41	Z41	X42	Y42	Z42	X43	Y43	Z43	X44	Y44	Z44	X45	Y45	Z45	X46	Y46	Z46	X47	Y47	Z47	X48	Y48	Z48	

68	0.670	1492.15234	422.93100	1666.50549	1360.82690	423.90643	1654.59351	1492.68774	554.91736	1607.47168	1364.43359	554.33173	1601.94507	1430.70654	553.09436	1452.99646	1414.36987	590.97681	1125.10461	1435.96106	442.85150	1375.31946	1439.48608	407.29224	1199.18726	1339.32617	621.33221	1286.35876	1594.08850	510.15271	1403.83264	1660.03223	553.58881	1205.36047	1667.83618	582.12415	1096.50146	1689.50232	589.78668	946.20801	1645.66650	553.89453	820.96838	1685.76758	613.11646	829.62213	1682.51526	592.48138	740.42523	1273.07666	476.90720	1411.52295	1177.93372	485.75888	1213.65137	1164.10608	454.14471	1096.53943	1155.98682	391.04861	994.96484	1204.86670	279.52911	901.67303	1160.76123	323.00241	876.06470	1166.18713	254.76863	828.26459	1529.62610	414.61835	967.53247	1310.78601	414.95285	966.49695	1503.04553	574.48175	990.23712	1334.35181	566.69666	993.95105	1598.67017	407.89481	661.91913	1574.02637	351.98303	508.74811	1569.69507	383.79977	256.44424	1533.43579	381.51721	83.16855	1483.87976	416.74445	67.08494	1542.64221	239.71532	54.69664	1270.27991	497.57263	631.25079	1294.82483	512.81543	506.03714	1305.89526	612.34131	254.87659	1359.15955	662.51575	77.29895	1405.34644	704.39185	56.97326	1355.25366	512.97693	34.89834	1432.87195	524.77338	1701.38647																								 
69	0.680	1492.72913	412.48657	1664.90991	1361.32373	413.42673	1653.13782	1493.14868	544.41132	1605.76965	1364.84473	543.88092	1600.40991	1430.90869	542.45532	1451.45850	1414.47852	581.04138	1123.67859	1436.16687	432.34036	1373.73865	1439.52075	397.11530	1197.59106	1339.30664	611.06787	1285.02332	1594.34497	499.78186	1402.29272	1659.98682	545.76666	1204.65356	1667.48010	576.11200	1096.15564	1689.11072	586.49792	945.99133	1645.23523	552.85010	820.17096	1685.04138	611.90961	829.94849	1681.88904	592.84827	740.16034	1273.32288	466.53531	1410.16077	1177.74329	474.67044	1212.54626	1164.12317	441.73239	1095.90039	1156.05383	376.85693	995.89813	1205.77625	263.37747	905.57886	1161.66357	306.06323	878.73621	1167.35706	236.60027	832.81036	1529.67615	404.23560	966.31372	1310.93494	405.35458	964.96753	1503.39746	564.37518	988.68182	1334.66760	556.86414	992.43701	1598.81702	399.75388	659.63025	1573.79688	342.75095	506.93976	1570.04224	362.06683	253.15825	1533.73218	349.58224	80.15712	1484.15820	383.84012	62.50056	1542.63538	206.31458	58.47051	1270.54480	489.82370	630.27478	1294.82227	506.81262	505.27753	1306.05908	609.85168	255.24176	1359.25403	662.06836	78.21465	1405.57202	704.01776	58.26355	1355.27405	512.96625	34.81577	1433.42139	514.35736	1699.77209																								 
70	0.690	1493.36145	402.02417	1663.29407	1361.86145	402.90927	1651.61682	1493.62720	533.85907	1603.98889	1365.32300	533.36652	1598.77686	1431.20947	531.99481	1449.94177	1414.84460	571.13586	1122.20789	1436.44836	421.88297	1372.11353	1439.61328	386.84399	1195.90344	1339.39038	600.73468	1283.64355	1594.61865	489.43073	1400.75598	1659.89612	537.76227	1203.92993	1667.18286	569.69562	1095.86047	1688.67407	582.74048	945.89258	1644.96179	550.80505	819.45752	1684.25574	610.13269	830.18414	1681.36450	592.60638	740.08502	1273.63696	456.07928	1408.71069	1177.64221	463.56952	1211.41028	1163.84338	429.67090	1095.18469	1156.25122	362.92075	996.63983	1206.84009	247.68343	909.26624	1162.64734	289.40176	881.24841	1168.63318	218.94392	837.27887	1529.81665	393.72098	964.98419	1310.95935	395.08865	963.64252	1503.91248	554.06567	986.99939	1335.16748	546.90881	990.84851	1599.28015	391.92966	656.96484	1573.59949	333.69199	504.95462	1570.34021	341.06436	250.28490	1534.05676	318.74808	78.09697	1484.47034	352.03186	59.06305	1543.15015	174.06352	62.90372	1270.77563	482.11298	629.54974	1294.74109	500.84238	504.60840	1306.12988	607.34271	255.73904	1359.26013	661.65289	79.26089	1405.69666	703.67871	59.64897	1355.35632	512.81085	34.72980	1434.03455	503.85501	1698.09900																								 
71	0.700	1493.95947	391.59531	1661.62939	1362.40100	392.39578	1650.06189	1494.18445	523.29919	1602.18848	1365.82471	522.78314	1597.07898	1431.51965	521.30298	1448.31409	1415.31860	561.13263	1120.65015	1436.80042	411.27155	1370.45984	1439.82788	376.46899	1194.22583	1339.60571	590.42468	1282.24341	1595.00354	479.05560	1399.17932	1659.90967	529.57538	1203.08960	1666.95117	563.04114	1095.50854	1687.82178	578.15558	945.46094	1644.75598	548.28278	818.84656	1683.52222	607.84888	830.43060	1680.99194	591.52344	740.17749	1273.98804	445.60345	1407.18982	1177.58557	452.56183	1210.18457	1163.72852	417.79669	1094.35681	1156.56909	349.14984	997.28174	1207.93054	232.37752	912.75134	1163.65759	273.12973	883.61023	1169.94348	201.61797	841.49707	1530.14832	383.09653	963.50488	1311.11133	384.84576	962.26593	1504.59424	543.53888	985.13995	1335.83496	536.87250	989.23511	1600.15271	384.03540	654.23468	1573.64099	324.97180	502.74796	1570.55908	320.77649	247.98093	1534.45447	289.21729	77.07207	1484.73975	321.18716	56.44572	1543.26465	143.84978	68.17851	1270.94299	474.49615	628.78546	1294.57581	494.55179	503.96582	1306.02161	604.74854	256.35120	1359.09424	661.14441	80.42216	1405.56067	703.32178	61.19471	1355.37988	512.75049	34.72782	1434.63184	493.34714	1696.35608																								 
72	0.710	1494.62561	381.02283	1659.98230	1362.99451	381.80884	1648.50513	1494.76868	512.70386	1600.56201	1366.31750	511.98956	1595.36890	1431.86658	510.86496	1446.74011	1415.90295	550.88611	1119.02917	1437.21326	400.62268	1368.83594	1440.12146	366.14133	1192.51990	1339.84839	580.09760	1280.83569	1595.45825	468.60367	1397.63049	1660.00134	521.16919	1202.21277	1666.79309	556.15582	1095.12915	1687.94482	573.80969	945.54456	1644.57446	545.11816	818.34296	1682.82056	604.96680	830.71210	1680.51270	589.69427	740.42938	1274.46692	435.11731	1405.58777	1177.71643	441.49338	1208.92969	1163.71960	405.97852	1093.41724	1156.89160	335.74103	997.77997	1209.03833	217.46843	915.93976	1164.64685	257.44986	885.79987	1171.31677	185.00351	845.36371	1530.63123	372.30426	961.84637	1311.31018	374.34882	960.91449	1505.51123	532.79993	983.24658	1336.65112	526.68512	987.72266	1601.29150	375.73068	651.63190	1573.76929	316.40149	500.42972	1570.54785	301.38297	246.33136	1534.78064	261.39499	76.93346	1484.98242	292.43365	55.11098	1543.99146	115.24892	73.91661	1271.15393	466.53723	628.01324	1294.36572	487.88342	503.22513	1305.75757	601.66571	256.92401	1358.61353	660.62408	81.62993	1405.08020	702.99469	62.88086	1355.35437	512.72327	34.70233	1435.30823	482.80859	1694.68079																								 
73	0.720	1495.24365	370.41315	1658.40991	1363.59277	371.12509	1646.97205	1495.39636	502.05655	1598.92371	1366.79065	501.33008	1593.71143	1432.45496	500.19589	1445.19922	1416.72876	540.45898	1117.44446	1437.67773	390.10349	1367.21240	1440.53491	355.40921	1191.00293	1340.30127	569.68964	1279.35815	1595.92554	458.19821	1396.05408	1660.23145	512.58942	1201.32361	1666.78699	548.83508	1094.66272	1687.61255	568.50427	945.30511	1644.55798	541.24976	817.79413	1682.28076	601.58875	830.97083	1680.07031	587.20569	740.47162	1275.02002	424.65549	1404.00623	1177.92639	430.57019	1207.54663	1163.77539	394.46460	1092.34607	1157.28357	322.64078	998.10443	1210.12988	203.09201	918.85944	1165.69043	242.29375	887.77838	1172.66174	169.06647	848.97131	1531.14197	361.23560	960.05615	1311.63843	363.93335	959.45416	1506.55469	521.86041	981.43701	1337.61365	516.39618	986.29083	1602.60388	366.77954	649.37909	1574.01904	307.68964	498.14603	1570.65601	283.43790	245.08168	1534.87402	235.63051	77.49255	1484.63977	265.35938	54.27271	1544.15088	88.97754	79.78991	1270.83630	458.52960	627.18988	1294.21387	480.83838	502.41733	1305.37708	598.05280	257.47018	1357.90466	659.92181	83.02367	1404.26160	702.64386	64.79822	1355.32715	512.71814	34.64891	1435.89563	472.14441	1693.03259																								 
74	0.730	1495.92578	359.75290	1656.86707	1364.27783	360.37790	1645.48486	1495.86780	491.17618	1597.32080	1367.37805	490.60886	1592.25427	1433.08289	489.58179	1443.72778	1417.59436	529.82806	1115.78784	1438.27466	379.41675	1365.70837	1441.05444	344.64365	1189.52576	1340.96973	559.22015	1277.85950	1596.55981	447.61392	1394.59473	1660.61560	503.85226	1200.51367	1666.88586	541.23779	1094.15979	1687.45276	562.71143	945.04614	1644.40759	536.92853	817.30579	1681.66235	597.20551	831.09039	1679.39453	584.01349	740.45667	1275.62244	414.20120	1402.46545	1178.20361	419.53540	1206.17737	1163.90369	383.15088	1091.26953	1157.77625	309.89160	998.29578	1211.19153	189.16086	921.47736	1166.71912	227.61682	889.54120	1174.11450	153.82019	852.06683	1531.62598	350.13852	958.30377	1312.06909	353.54492	957.97131	1507.69727	510.82904	979.85419	1338.66882	506.02353	984.92828	1603.76123	357.18082	647.39441	1574.33252	298.69385	496.10266	1570.35291	266.44040	244.10330	1534.75403	212.21936	78.42590	1484.71765	240.90775	54.42339	1544.27625	65.24393	85.10375	1270.92407	450.11401	626.21777	1294.14612	473.21118	501.41354	1305.07007	594.17340	257.99991	1357.03162	659.10944	84.55218	1403.20642	702.27484	66.95684	1355.22278	512.75281	34.65307	1436.56384	461.52222	1691.57556																								 
